# Blender 4.0.2
# www.blender.org
mtllib 2.mtl
o 2
v -0.855984 0.224926 0.485551
v -0.855984 2.763114 0.485551
v -0.855984 0.224926 -0.495232
v -0.855984 2.763114 -0.495232
v 0.919674 0.224926 1.066264
v 0.919674 2.763114 1.066264
v 0.911361 0.224926 0.213509
v 0.911361 2.763114 0.213509
v 1.199642 2.763114 0.229320
v 1.199642 0.224926 0.229320
v 1.456841 0.224926 1.042406
v 1.456841 2.763114 1.042406
v 1.408438 2.763114 0.206812
v 1.408438 0.224926 0.206812
v 1.990538 0.224926 0.830045
v 1.990538 2.763114 0.830045
v 1.475609 2.763114 0.070463
v 1.475609 0.224926 0.070463
v 2.261907 0.224926 0.400607
v 2.261907 2.763114 0.400607
v 1.538286 2.763114 -0.103153
v 1.538286 0.224926 -0.103153
v 2.350489 0.224926 -0.363125
v 2.350489 2.763114 -0.363125
v 1.592995 2.763114 -0.340234
v 1.592995 0.224926 -0.340234
v 1.984765 0.224926 -1.097714
v 1.984765 2.763114 -1.097714
v 1.063398 2.763114 -0.618701
v 1.063398 0.224926 -0.618701
v 1.455168 0.224926 -1.376180
v 1.455168 2.763114 -1.376180
v 0.858095 2.763114 -0.600717
v 0.858095 0.224926 -0.600717
v 0.757488 0.224926 -1.447556
v 0.757488 2.763114 -1.447556
v -1.621956 0.224926 -0.495232
v -1.621955 0.224926 0.485551
v -1.621955 2.763114 0.485551
v -1.621956 2.763114 -0.495232
v -0.855984 0.224926 1.195774
v -0.855984 2.763114 1.195774
v -0.855984 2.763114 -1.205455
v -0.855984 0.224926 -1.205455
v -1.621955 0.224926 1.195774
v -1.621955 2.763114 1.195774
v -1.621956 2.763114 -1.205455
v -1.621956 0.224926 -1.205455
vn -0.0000 1.0000 -0.0000
vn 0.3722 -0.0000 -0.9281
vn 0.0548 -0.0000 -0.9985
vn -0.3108 -0.0000 0.9505
vn -0.0000 -1.0000 -0.0000
vn 0.3697 -0.0000 0.9291
vn 0.0444 -0.0000 0.9990
vn -0.1072 -0.0000 -0.9942
vn -0.9406 -0.0000 -0.3396
vn -0.8971 -0.0000 -0.4419
vn 0.8454 -0.0000 0.5342
vn 0.8952 -0.0000 -0.4457
vn 0.9933 -0.0000 0.1152
vn -0.9744 -0.0000 -0.2248
vn 0.1018 -0.0000 -0.9948
vn -0.4654 -0.0000 0.8851
vn 0.4654 -0.0000 -0.8851
vn -0.9930 -0.0000 0.1180
vn 0.0873 -0.0000 0.9962
vn -1.0000 -0.0000 -0.0000
vn -0.0000 -0.0000 -1.0000
vn -0.0000 -0.0000 1.0000
vn 1.0000 -0.0000 -0.0000
vt 0.875000 0.750000
vt 0.875000 0.500000
vt 0.375000 0.250000
vt 0.625000 0.250000
vt 0.625000 0.500000
vt 0.375000 0.500000
vt 0.375000 0.750000
vt 0.625000 0.750000
vt 0.625000 1.000000
vt 0.375000 1.000000
vt 0.125000 0.500000
vt 0.125000 0.750000
vt 0.375000 0.000000
vt 0.625000 0.000000
s 0
f 2/1/1 4/2/1 40/2/1 39/1/1
f 3/3/2 4/4/2 8/5/2 7/6/2
f 7/6/3 8/5/3 9/5/3 10/6/3
f 5/7/4 6/8/4 2/9/4 1/10/4
f 3/11/5 7/6/5 5/7/5 1/12/5
f 8/5/1 4/2/1 2/1/1 6/8/1
f 12/8/6 11/7/6 15/7/6 16/8/6
f 6/8/7 5/7/7 11/7/7 12/8/7
f 5/7/5 7/6/5 10/6/5 11/7/5
f 8/5/1 6/8/1 12/8/1 9/5/1
f 13/5/1 16/8/1 20/8/1 17/5/1
f 11/7/5 10/6/5 14/6/5 15/7/5
f 9/5/1 12/8/1 16/8/1 13/5/1
f 10/6/8 9/5/8 13/5/8 14/6/8
f 18/6/9 17/5/9 21/5/9 22/6/9
f 14/6/10 13/5/10 17/5/10 18/6/10
f 16/8/11 15/7/11 19/7/11 20/8/11
f 15/7/5 14/6/5 18/6/5 19/7/5
f 24/8/12 23/7/12 27/7/12 28/8/12
f 20/8/13 19/7/13 23/7/13 24/8/13
f 19/7/5 18/6/5 22/6/5 23/7/5
f 17/5/1 20/8/1 24/8/1 21/5/1
f 25/5/1 28/8/1 32/8/1 29/5/1
f 23/7/5 22/6/5 26/6/5 27/7/5
f 21/5/1 24/8/1 28/8/1 25/5/1
f 22/6/14 21/5/14 25/5/14 26/6/14
f 32/8/15 31/7/15 35/7/15 36/8/15
f 26/6/16 25/5/16 29/5/16 30/6/16
f 28/8/17 27/7/17 31/7/17 32/8/17
f 27/7/5 26/6/5 30/6/5 31/7/5
f 34/6/18 33/5/18 36/8/18 35/7/18
f 31/7/5 30/6/5 34/6/5 35/7/5
f 29/5/1 32/8/1 36/8/1 33/5/1
f 30/6/19 29/5/19 33/5/19 34/6/19
f 38/13/20 39/14/20 40/4/20 37/3/20
f 3/11/5 1/12/5 38/12/5 37/11/5
f 3/11/5 37/11/5 48/11/5 44/11/5
f 40/2/1 4/2/1 43/2/1 47/2/1
f 43/4/21 44/3/21 48/3/21 47/4/21
f 41/10/22 42/9/22 46/9/22 45/10/22
f 2/1/1 39/1/1 46/1/1 42/1/1
f 37/3/20 40/4/20 47/4/20 48/3/20
f 4/4/23 3/3/23 44/3/23 43/4/23
f 39/14/20 38/13/20 45/13/20 46/14/20
f 1/10/23 2/9/23 42/9/23 41/10/23
f 38/12/5 1/12/5 41/12/5 45/12/5
