# Blender 4.0.2
# www.blender.org
mtllib 5.mtl
o 5
v 0.140711 2.764246 -0.842590
v 0.140711 0.226057 -0.842590
v 0.140711 2.764246 -0.012579
v 0.140711 0.226057 -0.012579
v 1.196672 2.764246 -0.842590
v 1.196672 0.226057 -0.842590
v 1.196672 2.764246 -0.012579
v 1.196672 0.226057 -0.012579
v -0.485523 0.226057 -0.842590
v -0.485523 0.226057 -0.012579
v -0.485523 2.764246 -0.012579
v -0.485523 2.764246 -0.842590
v 0.140711 0.226057 0.966138
v 0.140711 2.764246 0.966138
v -0.485523 0.226057 0.966138
v -0.485523 2.764246 0.966138
v 1.747963 2.764246 -0.842590
v 1.747963 0.226057 -0.842590
v 1.747963 2.764246 -0.012579
v 1.747963 0.226057 -0.012579
v 1.196672 2.764246 0.917626
v 1.196672 0.226057 0.917626
v 1.747963 2.764246 0.917626
v 1.747963 0.226057 0.917626
v 0.140711 0.226057 0.496016
v -0.485523 0.226057 0.496016
v -0.485523 2.764246 0.496016
v 0.140711 2.764246 0.496016
v -1.717475 0.226057 0.966138
v -1.717475 2.764246 0.966138
v -1.717475 2.764246 0.496016
v -1.717475 0.226057 0.496016
v -1.243020 0.226057 0.966138
v -1.243020 0.226057 0.496016
v -1.243020 2.764246 0.966138
v -1.243020 2.764246 0.496016
v -1.717475 0.226057 -0.825001
v -1.717475 2.764246 -0.825001
v -1.243020 2.764246 -0.825001
v -1.243020 0.226057 -0.825001
vn -0.0000 -1.0000 -0.0000
vn -0.0000 1.0000 -0.0000
vn -0.0000 -0.0000 1.0000
vn -1.0000 -0.0000 -0.0000
vn -0.0000 -0.0000 -1.0000
vn 1.0000 -0.0000 -0.0000
vt 0.125000 0.500000
vt 0.375000 0.500000
vt 0.375000 0.750000
vt 0.125000 0.750000
vt 0.875000 0.750000
vt 0.625000 0.750000
vt 0.625000 0.500000
vt 0.875000 0.500000
vt 0.375000 1.000000
vt 0.625000 1.000000
vt 0.375000 0.000000
vt 0.625000 0.000000
vt 0.625000 0.250000
vt 0.375000 0.250000
vt 0.875000 0.750000
s 0
usemtl Material
f 2/1/1 6/2/1 8/3/1 4/4/1
f 3/5/2 7/6/2 5/7/2 1/8/2
f 2/1/1 4/4/1 10/4/1 9/1/1
f 4/9/3 8/3/3 7/6/3 3/10/3
f 5/7/2 7/6/2 19/6/2 17/7/2
f 10/11/4 11/12/4 12/13/4 9/14/4
f 3/5/2 1/8/2 12/8/2 11/5/2
f 26/4/1 25/4/1 13/4/1 15/4/1
f 13/9/3 14/10/3 16/10/3 15/9/3
f 28/15/2 27/5/2 16/5/2 14/5/2
f 2/1/5 9/1/5 12/13/5 1/8/5
f 34/4/1 33/4/1 29/4/1 32/4/1
f 25/9/6 28/10/6 14/10/6 13/9/6
f 1/13/5 5/7/5 6/2/5 2/14/5
f 18/2/6 17/7/6 19/6/6 20/3/6
f 6/2/5 5/7/5 17/7/5 18/2/5
f 8/3/1 6/2/1 18/2/1 20/3/1
f 19/6/2 7/6/2 21/6/2 23/6/2
f 21/6/3 22/3/3 24/3/3 23/6/3
f 8/3/1 20/3/1 24/3/1 22/3/1
f 20/3/6 19/6/6 23/6/6 24/3/6
f 7/6/4 8/3/4 22/3/4 21/6/4
f 4/9/6 3/10/6 28/10/6 25/9/6
f 11/12/4 10/11/4 26/11/4 27/12/4
f 3/5/2 11/5/2 27/5/2 28/15/2
f 10/4/1 4/4/1 25/4/1 26/4/1
f 31/12/4 32/11/4 29/11/4 30/12/4
f 33/9/3 35/10/3 30/10/3 29/9/3
f 35/5/2 36/5/2 31/5/2 30/5/2
f 34/4/1 32/4/1 37/4/1 40/4/1
f 27/12/5 26/11/5 34/11/5 36/12/5
f 16/5/2 27/5/2 36/5/2 35/5/2
f 15/9/3 16/10/3 35/10/3 33/9/3
f 26/4/1 15/4/1 33/4/1 34/4/1
f 39/12/5 40/11/5 37/11/5 38/12/5
f 31/5/2 36/5/2 39/5/2 38/5/2
f 32/11/4 31/12/4 38/12/4 37/11/4
f 36/12/6 34/11/6 40/11/6 39/12/6
