# Blender 4.0.2
# www.blender.org
mtllib 7.mtl
o 7
v 1.060672 2.764246 0.224921
v 1.060672 0.226057 0.224921
v 0.969829 2.764246 1.067483
v 0.969829 0.226057 1.067483
v -1.421585 0.226057 -0.571843
v -1.675258 0.226057 0.218453
v -1.675258 2.764246 0.218453
v -1.421585 2.764246 -0.571843
v 1.600167 2.764246 0.283089
v 1.600167 0.226057 0.283089
v 1.509323 2.764246 1.125651
v 1.509323 0.226057 1.125651
v 1.200413 2.764246 -1.071160
v 1.200413 0.226057 -1.071160
v 1.739908 2.764246 -1.012993
v 1.739908 0.226057 -1.012993
vn -0.0000 1.0000 -0.0000
vn -0.3056 -0.0000 0.9522
vn -0.9522 -0.0000 -0.3056
vn 0.3056 -0.0000 -0.9522
vn -0.0000 -1.0000 -0.0000
vn 0.9942 -0.0000 0.1072
vn -0.1072 -0.0000 0.9942
vn 0.1072 -0.0000 -0.9942
vn -0.9942 -0.0000 -0.1072
vt 0.875000 0.750000
vt 0.656734 0.750000
vt 0.647585 0.477415
vt 0.875000 0.500000
vt 0.375000 0.000000
vt 0.359133 0.702399
vt 0.625000 0.000000
vt 0.625000 0.250000
vt 0.375000 0.250000
vt 0.329830 0.500000
vt 0.125000 0.500000
vt 0.125000 0.750000
s 0
usemtl Material
f 7/1/1 3/2/1 1/3/1 8/4/1
f 1/3/1 3/2/1 11/2/1 9/3/1
f 6/5/2 4/6/2 3/2/2 7/1/2
f 6/5/3 7/7/3 8/8/3 5/9/3
f 8/8/4 1/3/4 2/10/4 5/11/4
f 5/11/5 2/10/5 4/6/5 6/12/5
f 10/10/6 9/3/6 11/2/6 12/6/6
f 9/3/6 10/10/6 16/10/6 15/3/6
f 4/6/5 2/10/5 10/10/5 12/6/5
f 3/2/7 4/6/7 12/6/7 11/2/7
f 14/10/8 13/3/8 15/3/8 16/10/8
f 2/10/9 1/3/9 13/3/9 14/10/9
f 1/3/1 9/3/1 15/3/1 13/3/1
f 10/10/5 2/10/5 14/10/5 16/10/5
