# Blender 4.0.2
# www.blender.org
mtllib 8.mtl
o 8
v 0.140711 2.764246 -0.728099
v 0.140711 0.226057 -0.728099
v 0.140711 2.764246 -0.298597
v 0.140711 0.226057 -0.298597
v 1.196672 2.764246 -0.842590
v 1.196672 0.226057 -0.842590
v 1.196672 2.764246 -0.298597
v 1.196672 0.226057 -0.298597
v -0.485523 0.226057 -0.728099
v -0.485523 0.226057 -0.298597
v -0.485523 2.764246 -0.298597
v -0.485523 2.764246 -0.728099
v 0.140711 0.226057 0.851647
v 0.140711 2.764246 0.851647
v -0.485523 0.226057 0.851647
v -0.485523 2.764246 0.851647
v 1.747963 2.764246 -0.012579
v 1.747963 0.226057 -0.012579
v 1.196672 2.764246 0.917626
v 1.196672 0.226057 0.917626
v 0.140711 0.226057 0.496016
v -0.485523 0.226057 0.496016
v -0.485523 2.764246 0.496016
v 0.140711 2.764246 0.496016
v -1.717475 2.764246 0.496016
v -1.717475 0.226057 0.496016
v -1.243020 0.226057 0.966138
v -1.243020 0.226057 0.496016
v -1.243020 2.764246 0.966138
v -1.243020 2.764246 0.496016
v -1.243020 2.764246 -0.825001
v -1.243020 0.226057 -0.825001
v -1.274695 0.226057 -0.842590
v -1.274695 0.226057 -0.298597
v -1.274695 2.764246 -0.298597
v -1.274695 2.764246 -0.842590
v 1.196672 2.764246 0.565887
v 1.747963 2.764246 0.565887
v 1.747963 0.226057 0.565887
v 1.196672 0.226057 0.565887
v 0.084287 2.764246 0.844924
v 0.084287 0.226057 0.844924
v 0.084287 2.764246 0.493185
v 0.084287 0.226057 0.493185
v 1.747963 2.764246 -0.673823
v 1.341301 2.764246 -0.842590
v 1.693480 2.764246 -0.758207
v 1.544632 2.764246 -0.819980
v 1.341301 0.226057 -0.842590
v 1.747963 0.226057 -0.673823
v 1.544632 0.226057 -0.819980
v 1.693480 0.226057 -0.758207
v 1.211394 2.764246 0.917626
v 1.747963 2.764246 0.694947
v 1.479679 2.764246 0.887792
v 1.676076 2.764246 0.806286
v 1.747963 0.226057 0.694947
v 1.211394 0.226057 0.917626
v 1.676076 0.226057 0.806286
v 1.479679 0.226057 0.887792
v -1.334232 0.226057 0.966138
v -1.717475 0.226057 0.807090
v -1.525854 0.226057 0.944830
v -1.666131 0.226057 0.886614
v -1.717475 2.764246 0.807090
v -1.334232 2.764246 0.966138
v -1.666131 2.764246 0.886614
v -1.525854 2.764246 0.944830
v -1.717475 0.226057 -0.665953
v -1.334232 0.226057 -0.825001
v -1.666131 0.226057 -0.745477
v -1.525854 0.226057 -0.803692
v -1.334232 2.764246 -0.825001
v -1.717475 2.764246 -0.665953
v -1.525854 2.764246 -0.803692
v -1.666131 2.764246 -0.745477
vn -0.0000 -1.0000 -0.0000
vn -0.0000 1.0000 -0.0000
vn -0.0000 -0.0000 1.0000
vn -0.0000 -0.0000 -1.0000
vn 1.0000 -0.0000 -0.0000
vn -0.1078 -0.0000 -0.9942
vn 0.0652 -0.0000 -0.9979
vn -1.0000 -0.0000 -0.0000
vn 0.1494 -0.0000 0.9888
vn 0.1436 -0.0000 -0.9896
vn -0.0652 -0.0000 0.9979
vn 0.8401 -0.0000 -0.5424
vn 0.3833 -0.0000 -0.9236
vn 0.1105 -0.0000 -0.9939
vn 0.1105 -0.0000 0.9939
vn 0.3833 -0.0000 0.9236
vn 0.8401 -0.0000 0.5424
vn -0.1105 -0.0000 0.9939
vn -0.3833 -0.0000 0.9236
vn -0.8401 -0.0000 0.5424
vn -0.8401 -0.0000 -0.5424
vn -0.3833 -0.0000 -0.9236
vn -0.1105 -0.0000 -0.9939
vt 0.125000 0.500000
vt 0.375000 0.500000
vt 0.375000 0.750000
vt 0.125000 0.750000
vt 0.875000 0.750000
vt 0.625000 0.750000
vt 0.625000 0.500000
vt 0.875000 0.500000
vt 0.375000 1.000000
vt 0.625000 1.000000
vt 0.375000 0.502793
vt 0.375000 0.526048
vt 0.375000 0.550833
vt 0.375000 0.000000
vt 0.625000 0.000000
vt 0.875000 0.750000
vt 0.625000 0.250000
vt 0.375000 0.250000
vt 0.625000 0.550833
vt 0.625000 0.526048
vt 0.625000 0.502793
vt 0.125000 0.750000
vt 0.125000 0.750000
vt 0.875000 0.750000
s 0
usemtl Material
f 2/1/1 6/2/1 8/3/1 4/4/1
f 3/5/2 7/6/2 5/7/2 1/8/2
f 2/1/1 4/4/1 10/4/1 9/1/1
f 4/9/3 8/3/3 7/6/3 3/10/3
f 8/3/1 6/2/1 49/2/1 51/11/1 52/12/1 50/13/1 18/3/1
f 10/14/3 11/15/3 35/15/3 34/14/3
f 3/5/2 1/8/2 12/8/2 11/5/2
f 22/4/1 21/4/1 13/4/1 15/4/1
f 13/9/3 14/10/3 16/10/3 15/9/3
f 24/16/2 23/5/2 16/5/2 14/5/2
f 2/1/4 9/1/4 12/17/4 1/8/4
f 29/5/2 30/5/2 25/5/2 65/5/2 67/16/2 68/5/2 66/5/2
f 21/9/5 24/10/5 14/10/5 13/9/5
f 1/17/6 5/7/6 6/2/6 2/18/6
f 5/7/2 7/6/2 17/6/2 45/19/2 47/20/2 48/21/2 46/7/2
f 50/13/5 45/19/5 17/6/5 18/3/5
f 40/3/1 39/3/1 57/3/1 59/3/1 60/3/1 58/3/1 20/3/1
f 38/6/2 37/6/2 19/6/2 53/6/2 55/6/2 56/6/2 54/6/2
f 19/6/3 20/3/3 58/3/3 53/6/3
f 37/6/7 40/3/7 44/3/7 43/6/7
f 4/9/5 3/10/5 24/10/5 21/9/5
f 11/15/8 10/14/8 22/14/8 23/15/8
f 3/5/2 11/5/2 23/5/2 24/16/2
f 10/4/1 4/4/1 21/4/1 22/4/1
f 28/4/1 27/4/1 61/4/1 63/22/1 64/23/1 62/4/1 26/4/1
f 25/15/8 26/14/8 62/14/8 65/15/8
f 26/14/8 25/15/8 74/15/8 69/14/8
f 25/5/2 30/5/2 31/5/2 73/5/2 75/5/2 76/24/2 74/5/2
f 23/15/4 22/14/4 28/14/4 30/15/4
f 16/5/2 23/5/2 30/5/2 29/5/2
f 15/9/9 16/10/9 29/10/9 27/9/9
f 22/4/1 15/4/1 27/4/1 28/4/1
f 28/4/1 26/4/1 69/4/1 71/4/1 72/4/1 70/4/1 32/4/1
f 31/15/4 32/14/4 70/14/4 73/15/4
f 30/15/5 28/14/5 32/14/5 31/15/5
f 34/14/8 35/15/8 36/17/8 33/18/8
f 12/17/10 9/1/10 33/1/10 36/17/10
f 9/1/1 10/4/1 34/4/1 33/1/1
f 11/5/2 12/8/2 36/8/2 35/5/2
f 7/6/8 8/3/8 40/3/8 37/6/8
f 18/3/5 17/6/5 38/6/5 39/3/5
f 8/3/1 18/3/1 39/3/1 40/3/1
f 17/6/2 7/6/2 37/6/2 38/6/2
f 43/6/8 44/3/8 42/3/8 41/6/8
f 19/6/2 37/6/2 43/6/2 41/6/2
f 20/3/11 19/6/11 41/6/11 42/3/11
f 40/3/1 20/3/1 42/3/1 44/3/1
f 45/19/12 50/13/12 52/12/12 47/20/12
f 47/20/13 52/12/13 51/11/13 48/21/13
f 48/21/14 51/11/14 49/2/14 46/7/14
f 6/2/4 5/7/4 46/7/4 49/2/4
f 53/6/15 58/3/15 60/3/15 55/6/15
f 55/6/16 60/3/16 59/3/16 56/6/16
f 56/6/17 59/3/17 57/3/17 54/6/17
f 39/3/5 38/6/5 54/6/5 57/3/5
f 61/9/18 66/10/18 68/10/18 63/9/18
f 63/9/19 68/10/19 67/10/19 64/9/19
f 64/14/20 67/15/20 65/15/20 62/14/20
f 69/14/21 74/15/21 76/15/21 71/14/21
f 71/14/22 76/15/22 75/15/22 72/14/22
f 72/14/23 75/15/23 73/15/23 70/14/23
f 27/9/3 29/10/3 66/10/3 61/9/3
