# Blender 4.0.2
# www.blender.org
mtllib 9.mtl
o 9
v -0.030079 2.764246 0.783771
v -0.030079 0.226057 0.783771
v -0.030080 2.764246 -0.046240
v -0.030080 0.226057 -0.046240
v -1.086040 2.764246 0.783772
v -1.086040 0.226057 0.783772
v -1.086040 2.764246 -0.046239
v -1.086040 0.226057 -0.046239
v 0.596154 0.226057 0.783771
v 0.596154 0.226057 -0.046240
v 0.596154 2.764246 -0.046240
v 0.596154 2.764246 0.783771
v -0.030080 0.226057 -1.024957
v -0.030080 2.764246 -1.024957
v 0.596154 0.226057 -1.024957
v 0.596154 2.764246 -1.024957
v -1.637331 2.764246 0.783772
v -1.637331 0.226057 0.783772
v -1.637331 2.764246 -0.046239
v -1.637331 0.226057 -0.046239
v -1.086041 2.764246 -0.976444
v -1.086041 0.226057 -0.976444
v -1.637332 2.764246 -0.976444
v -1.637332 0.226057 -0.976444
v -0.030080 0.226057 -0.554835
v 0.596154 0.226057 -0.554835
v 0.596154 2.764246 -0.554835
v -0.030080 2.764246 -0.554835
v 1.828106 0.226057 -1.024957
v 1.828106 2.764246 -1.024957
v 1.828106 2.764246 -0.554836
v 1.828106 0.226057 -0.554836
v 1.353651 0.226057 -1.024957
v 1.353651 0.226057 -0.554835
v 1.353651 2.764246 -1.024957
v 1.353651 2.764246 -0.554835
v 1.828107 0.226057 0.766181
v 1.828107 2.764246 0.766181
v 1.353651 2.764246 0.766182
v 1.353651 0.226057 0.766182
v 1.385326 0.226057 0.783771
v 1.385326 0.226057 -0.046240
v 1.385326 2.764246 -0.046240
v 1.385326 2.764246 0.783771
vn -0.0000 -1.0000 -0.0000
vn -0.0000 1.0000 -0.0000
vn -0.0000 -0.0000 -1.0000
vn -0.0000 -0.0000 1.0000
vn -1.0000 -0.0000 -0.0000
vn 1.0000 -0.0000 -0.0000
vt 0.125000 0.500000
vt 0.375000 0.500000
vt 0.375000 0.750000
vt 0.125000 0.750000
vt 0.875000 0.750000
vt 0.625000 0.750000
vt 0.625000 0.500000
vt 0.875000 0.500000
vt 0.375000 1.000000
vt 0.625000 1.000000
vt 0.375000 0.000000
vt 0.625000 0.000000
vt 0.875000 0.750000
vt 0.625000 0.250000
vt 0.375000 0.250000
s 0
usemtl Material
f 2/1/1 6/2/1 8/3/1 4/4/1
f 3/5/2 7/6/2 5/7/2 1/8/2
f 2/1/1 4/4/1 10/4/1 9/1/1
f 4/9/3 8/3/3 7/6/3 3/10/3
f 5/7/2 7/6/2 19/6/2 17/7/2
f 10/11/3 11/12/3 43/12/3 42/11/3
f 3/5/2 1/8/2 12/8/2 11/5/2
f 26/4/1 25/4/1 13/4/1 15/4/1
f 13/9/3 14/10/3 16/10/3 15/9/3
f 28/13/2 27/5/2 16/5/2 14/5/2
f 2/1/4 9/1/4 12/14/4 1/8/4
f 34/4/1 33/4/1 29/4/1 32/4/1
f 25/9/5 28/10/5 14/10/5 13/9/5
f 1/14/4 5/7/4 6/2/4 2/15/4
f 18/2/5 17/7/5 19/6/5 20/3/5
f 6/2/4 5/7/4 17/7/4 18/2/4
f 8/3/1 6/2/1 18/2/1 20/3/1
f 19/6/2 7/6/2 21/6/2 23/6/2
f 21/6/3 22/3/3 24/3/3 23/6/3
f 8/3/1 20/3/1 24/3/1 22/3/1
f 20/3/5 19/6/5 23/6/5 24/3/5
f 7/6/6 8/3/6 22/3/6 21/6/6
f 4/9/5 3/10/5 28/10/5 25/9/5
f 11/12/6 10/11/6 26/11/6 27/12/6
f 3/5/2 11/5/2 27/5/2 28/13/2
f 10/4/1 4/4/1 25/4/1 26/4/1
f 31/12/6 32/11/6 29/11/6 30/12/6
f 33/9/3 35/10/3 30/10/3 29/9/3
f 35/5/2 36/5/2 31/5/2 30/5/2
f 34/4/1 32/4/1 37/4/1 40/4/1
f 27/12/4 26/11/4 34/11/4 36/12/4
f 16/5/2 27/5/2 36/5/2 35/5/2
f 15/9/3 16/10/3 35/10/3 33/9/3
f 26/4/1 15/4/1 33/4/1 34/4/1
f 39/12/4 40/11/4 37/11/4 38/12/4
f 31/5/2 36/5/2 39/5/2 38/5/2
f 32/11/6 31/12/6 38/12/6 37/11/6
f 36/12/5 34/11/5 40/11/5 39/12/5
f 42/11/6 43/12/6 44/14/6 41/15/6
f 12/14/4 9/1/4 41/1/4 44/14/4
f 9/1/1 10/4/1 42/4/1 41/1/1
f 11/5/2 12/8/2 44/8/2 43/5/2
